<?xml version="1.0" standalone="no"?>
<!DOCTYPE svg PUBLIC "-//W3C//DTD SVG 20010904//EN"
 "http://www.w3.org/TR/2001/REC-SVG-20010904/DTD/svg10.dtd">
<svg version="1.0" xmlns="http://www.w3.org/2000/svg"
 width="360.000000pt" height="360.000000pt" viewBox="0 0 360.000000 360.000000"
 preserveAspectRatio="xMidYMid meet">

<g transform="translate(0.000000,360.000000) scale(0.100000,-0.100000)"
fill="#000000" stroke="none">
<path d="M332 3289 c-29 -11 -44 -51 -32 -83 12 -33 43 -51 110 -66 223 -48
297 -121 321 -312 7 -57 9 -416 6 -1070 -4 -1061 -4 -1052 -57 -1159 -41 -81
-82 -111 -192 -143 -62 -18 -88 -44 -88 -88 0 -50 21 -52 376 -39 246 9 380 9
575 0 293 -13 309 -11 309 46 0 45 -21 59 -143 94 -163 47 -231 106 -256 222
-15 66 -14 711 0 762 7 27 39 68 110 141 55 57 109 106 120 109 14 4 28 -2 43
-18 12 -12 199 -267 416 -565 217 -298 427 -586 467 -640 96 -132 126 -154
217 -158 39 -2 121 1 181 7 78 7 159 7 282 -1 193 -13 203 -10 203 48 0 28 -5
37 -27 46 -16 6 -71 31 -123 56 -163 77 -228 151 -761 870 -250 336 -465 631
-478 655 -32 55 -24 85 37 145 140 139 857 793 921 841 92 68 197 124 293 157
39 13 77 29 84 35 22 18 17 73 -7 95 -20 18 -34 19 -183 14 -88 -3 -240 -5
-336 -5 -96 0 -244 2 -328 5 -152 5 -154 5 -173 -19 -46 -56 -12 -102 95 -125
128 -29 160 -64 136 -151 -23 -81 -107 -192 -269 -355 -263 -263 -844 -825
-875 -845 -56 -37 -56 -39 -56 549 0 292 5 561 10 599 20 139 69 195 194 221
37 8 74 20 82 28 21 22 26 61 10 83 -14 19 -23 20 -198 15 -260 -7 -721 -6
-868 2 -69 3 -135 2 -148 -3z"/>
</g>
</svg>
